<svg id="visual" viewBox="0 0 900 600" width="900" height="600" xmlns="http://www.w3.org/2000/svg" xmlns:xlink="http://www.w3.org/1999/xlink" version="1.1"><rect x="0" y="0" width="900" height="600" fill="#140021"></rect><path d="M0 353L129 353L129 368L257 368L257 334L386 334L386 349L514 349L514 261L643 261L643 306L771 306L771 282L900 282L900 285L900 601L900 601L771 601L771 601L643 601L643 601L514 601L514 601L386 601L386 601L257 601L257 601L129 601L129 601L0 601Z" fill="#9900ff"></path><path d="M0 447L129 447L129 346L257 346L257 385L386 385L386 403L514 403L514 386L643 386L643 346L771 346L771 381L900 381L900 424L900 601L900 601L771 601L771 601L643 601L643 601L514 601L514 601L386 601L386 601L257 601L257 601L129 601L129 601L0 601Z" fill="#7700c6"></path><path d="M0 543L129 543L129 450L257 450L257 480L386 480L386 537L514 537L514 474L643 474L643 510L771 510L771 525L900 525L900 546L900 601L900 601L771 601L771 601L643 601L643 601L514 601L514 601L386 601L386 601L257 601L257 601L129 601L129 601L0 601Z" fill="#560090"></path></svg>