<svg xmlns="http://www.w3.org/2000/svg" viewBox="0 0 750 500"><g id="freepik--background-complete--inject-20"><path d="M208.14,147H81.5V60.39H208.14ZM82.5,146H207.14V61.39H82.5Z" style="fill:#ebebeb"></path><path d="M91.4,66a2.52,2.52,0,1,1-2.52-2.52A2.52,2.52,0,0,1,91.4,66Z" style="fill:#a6a6a6"></path><path d="M101.7,66a2.53,2.53,0,1,1-2.52-2.52A2.52,2.52,0,0,1,101.7,66Z" style="fill:#ebebeb"></path><path d="M112,66a2.52,2.52,0,1,1-2.52-2.52A2.52,2.52,0,0,1,112,66Z" style="fill:#FFFFFF"></path><rect x="82" y="70.41" width="125.64" height="1" style="fill:#ebebeb"></rect><path d="M73.84,151.67a2.79,2.79,0,0,1,2.93,0q.36.23.75.42c.25.14.51.27.77.4a2.78,2.78,0,0,1,1.63,2.41l.11,3.6,11.71-.37-.11-3.59A2.79,2.79,0,0,1,93.1,152a15.21,15.21,0,0,0,1.49-.91,2.76,2.76,0,0,1,2.9-.19l3.16,1.7,5.54-10.33L103,140.6a2.76,2.76,0,0,1-1.45-2.52,17,17,0,0,0-.06-1.75,2.78,2.78,0,0,1,1.29-2.62l3-1.89-6.17-10-3.07,1.9a2.77,2.77,0,0,1-2.91,0q-.36-.22-.75-.42c-.25-.14-.51-.27-.77-.39a2.79,2.79,0,0,1-1.63-2.43l-.11-3.59-11.71.36.11,3.58a2.78,2.78,0,0,1-1.46,2.53c-.51.28-1,.59-1.49.92a2.78,2.78,0,0,1-2.91.19l-3.16-1.69-5.54,10.32,3.16,1.7a2.75,2.75,0,0,1,1.45,2.53A17.06,17.06,0,0,0,69,139.1a2.8,2.8,0,0,1-1.29,2.62l-3,1.89,6.17,9.95Zm2.94-18.49a9.59,9.59,0,1,1,3.93,13A9.61,9.61,0,0,1,76.78,133.18Z" style="fill:#ebebeb"></path><path d="M653.36,259.52a2.77,2.77,0,0,1,2.92,0l.75.43.78.39a2.78,2.78,0,0,1,1.63,2.41l.11,3.6,11.71-.37-.11-3.59a2.77,2.77,0,0,1,1.47-2.52,17.37,17.37,0,0,0,1.48-.92,2.8,2.8,0,0,1,2.91-.19l3.16,1.7,5.54-10.33-3.16-1.69a2.77,2.77,0,0,1-1.45-2.53,16.86,16.86,0,0,0-.06-1.74,2.8,2.8,0,0,1,1.29-2.63l3-1.89-6.17-10-3.07,1.91a2.77,2.77,0,0,1-2.91,0l-.75-.42c-.25-.14-.51-.27-.77-.39a2.77,2.77,0,0,1-1.63-2.42l-.11-3.6-11.71.36.11,3.59a2.76,2.76,0,0,1-1.46,2.52,14.28,14.28,0,0,0-1.49.93,2.78,2.78,0,0,1-2.91.18l-3.16-1.69L643.81,241l3.16,1.69a2.79,2.79,0,0,1,1.45,2.53,17.06,17.06,0,0,0,.06,1.75,2.79,2.79,0,0,1-1.3,2.62l-3,1.89,6.17,10ZM656.3,241a9.59,9.59,0,1,1,3.92,13A9.59,9.59,0,0,1,656.3,241Z" style="fill:#ebebeb"></path><path d="M97.46,182.31a2,2,0,0,1,1,1.82c0,.2,0,.4,0,.6s0,.41,0,.61a1.93,1.93,0,0,1-1,1.8l-2.19,1.26,4.11,7.11,2.18-1.26a1.93,1.93,0,0,1,2,.08c.34.22.7.42,1.06.61a1.94,1.94,0,0,1,1.08,1.73v2.51H114v-2.51a1.94,1.94,0,0,1,1.08-1.73c.36-.19.71-.39,1-.61a1.94,1.94,0,0,1,2-.08l2.18,1.26,4.1-7.11-2.19-1.26a1.94,1.94,0,0,1-1-1.81c0-.2,0-.4,0-.6s0-.4,0-.6a1.94,1.94,0,0,1,1-1.81l2.18-1.26-4.1-7.11-2.17,1.26a2,2,0,0,1-2.05-.07,11.27,11.27,0,0,0-1.06-.62,1.93,1.93,0,0,1-1.08-1.73v-2.51h-8.21v2.51a1.93,1.93,0,0,1-1.08,1.73,10.13,10.13,0,0,0-1.06.62,2,2,0,0,1-2,.07L99.39,174l-4.11,7.11ZM109.85,178a6.73,6.73,0,1,1-6.72,6.73A6.74,6.74,0,0,1,109.85,178Z" style="fill:#ebebeb"></path><path d="M91.66,285c0-1.13.15-4.14.15-5.42,0-5.49-2-8-7.07-8.12-2.4-.15-3.83-1.58-3.83-3.61s1.43-3.46,3.83-3.61c5.12-.23,7.07-2.64,7.07-8.2,0-1.28-.15-4.29-.15-5.42,0-7.29,3.09-12,14.75-14.51a3.25,3.25,0,0,1,2,6.16c-7.3,2.26-8.35,4.59-8.35,9.71,0,1.5.15,4,.15,5.56,0,5.87-2.86,8.73-7.83,10.31,5,1.65,7.83,4.44,7.83,10.3,0,1.58-.15,4.06-.15,5.57,0,5.11,1,7.45,8.35,9.7a3.25,3.25,0,0,1-2,6.17C94.75,297,91.66,292.34,91.66,285Z" style="fill:#ebebeb"></path><path d="M135.74,250.59c0,1.13-.15,4.14-.15,5.42,0,5.56,2,8,7.15,8.2,2.33.15,3.76,1.58,3.76,3.61s-1.43,3.46-3.76,3.61c-5.12.15-7.15,2.63-7.15,8.12,0,1.28.15,4.29.15,5.42,0,7.37-3.08,12-14.74,14.59a3.24,3.24,0,0,1-2-6.17c7.22-2.25,8.28-4.59,8.28-9.7,0-1.51-.15-4-.15-5.57,0-5.86,2.85-8.72,7.82-10.3-5-1.66-7.82-4.44-7.82-10.31,0-1.58.15-4.06.15-5.56,0-5.12-1.06-7.45-8.28-9.71a3.11,3.11,0,0,1-2.18-3.08,3.16,3.16,0,0,1,4.14-3.08C132.66,238.63,135.74,243.3,135.74,250.59Z" style="fill:#ebebeb"></path><path d="M621.19,131.26a4,4,0,0,1-2.81,6.91,4.27,4.27,0,0,1-3-1.15l-18-18.26c-.2-.06-.26-.19-.32-.38a.84.84,0,0,0-.2-.13,2.11,2.11,0,0,1-.19-.51.34.34,0,0,1-.19-.26c-.06-.13-.06-.32-.13-.38s-.13-.26-.13-.32v-.45c0-.13-.06-.19-.06-.39s.06-.25.06-.32v-.44c0-.13.13-.2.13-.26s.07-.32.13-.51.06-.07.06-.13.2-.45.32-.58a.13.13,0,0,1,.13-.13,1.19,1.19,0,0,1,.39-.44l18-18.26a4.17,4.17,0,0,1,5.76,0,4,4,0,0,1,0,5.76L606,115.94Z" style="fill:#ebebeb"></path><path d="M637.53,133.31,653.22,96a3.55,3.55,0,0,1,4.68-1.86,3.45,3.45,0,0,1,1.79,4.55L644,136.06a3.54,3.54,0,0,1-3.27,2.11,3.1,3.1,0,0,1-1.28-.25A3.46,3.46,0,0,1,637.53,133.31Z" style="fill:#ebebeb"></path><path d="M690.7,118.25a.06.06,0,0,1-.06.06,3.18,3.18,0,0,1-.45.45l-18,18.26a4.19,4.19,0,0,1-5.77,0,4.06,4.06,0,0,1,0-5.76l15.18-15.32-15.18-15.31a4.06,4.06,0,0,1,0-5.76,4.18,4.18,0,0,1,5.77,0l18,18.26a3.15,3.15,0,0,1,.45.44c.06,0,.06.13.06.13a5.27,5.27,0,0,1,.32.58c0,.06.07.06.07.13a2.52,2.52,0,0,0,.19.57c0,.07.06.07.06.2v.44c0,.07.07.26.07.32s-.07.26-.07.32v.52c0,.06-.06.06-.06.13a4.11,4.11,0,0,0-.19.57c0,.07-.07.07-.07.19S690.83,118,690.7,118.25Z" style="fill:#ebebeb"></path></g><g id="freepik--Floor--inject-20"><path d="M59.52,348.2c202.12-.62,428.84-.62,631,0-202.12.61-428.84.61-631,0Z" style="fill:#263238"></path></g><g id="freepik--Device--inject-20"><rect x="143.25" y="41.93" width="463.51" height="310.05" style="fill:#dbdbdb"></rect><rect x="146.62" y="45.71" width="456.77" height="302.49" style="fill:#263238"></rect><rect x="82.88" y="424" width="584.24" height="21.48" style="fill:#c7c7c7"></rect><polygon points="82.88 424 143.25 351.98 606.75 351.98 667.12 424 82.88 424" style="fill:#dbdbdb"></polygon><polygon points="606.73 384.63 145.02 384.63 168.69 351.98 583.06 351.98 606.73 384.63" style="fill:#263238"></polygon><polygon points="598.46 373.22 153.29 373.22 154.25 371.89 597.5 371.89 598.46 373.22" style="fill:#37474f"></polygon><polygon points="589.81 361.3 161.94 361.3 162.9 359.96 588.85 359.96 589.81 361.3" style="fill:#37474f"></polygon><polygon points="303.53 415.9 318.49 392.92 432.22 392.92 448.23 415.9 303.53 415.9" style="fill:#263238"></polygon><polygon points="417.85 432.63 333.9 432.63 331.82 424 419.94 424 417.85 432.63" style="fill:#dbdbdb"></polygon><rect x="172.09" y="68.69" width="405.83" height="256.96" style="fill:#37474f"></rect><rect x="172.09" y="68.69" width="405.83" height="9.89" style="fill:#FFFFFF"></rect><path d="M181.39,73.63a1.87,1.87,0,1,1-1.87-1.87A1.86,1.86,0,0,1,181.39,73.63Z" style="fill:#c7c7c7"></path><path d="M189,73.63a1.87,1.87,0,1,1-1.87-1.87A1.86,1.86,0,0,1,189,73.63Z" style="fill:#fff"></path><path d="M196.67,73.63a1.87,1.87,0,1,1-1.87-1.87A1.86,1.86,0,0,1,196.67,73.63Z" style="fill:#455a64"></path><rect x="198.02" y="122.51" width="11.42" height="3.47" style="fill:#ebebeb"></rect><rect x="222.91" y="122.51" width="253.1" height="3.47" style="fill:#ebebeb"></rect><rect x="483.03" y="122.51" width="21.69" height="3.47" style="fill:#FFFFFF"></rect><rect x="198.02" y="138.92" width="11.42" height="3.47" style="fill:#ebebeb"></rect><rect x="234.04" y="138.92" width="85.95" height="3.47" style="fill:#a6a6a6"></rect><rect x="480.07" y="204.58" width="32.51" height="3.47" style="fill:#a6a6a6"></rect><rect x="222.91" y="188.16" width="82.1" height="3.47" style="fill:#a6a6a6"></rect><rect x="234.04" y="155.34" width="57.6" height="3.47" style="fill:#FFFFFF"></rect><rect x="298.03" y="155.34" width="214.1" height="3.47" style="fill:#a6a6a6"></rect><rect x="222.91" y="204.58" width="249.73" height="3.47" style="fill:#FFFFFF"></rect><rect x="325.39" y="138.92" width="176.91" height="3.47" style="fill:#ebebeb"></rect><rect x="198.02" y="155.34" width="11.42" height="3.47" style="fill:#ebebeb"></rect><rect x="198.02" y="171.75" width="11.42" height="3.47" style="fill:#a6a6a6"></rect><rect x="222.91" y="171.75" width="67.48" height="3.47" style="fill:#ebebeb"></rect><rect x="234.04" y="220.99" width="67.48" height="3.47" style="fill:#ebebeb"></rect><rect x="295.06" y="237.41" width="181.03" height="3.47" style="fill:#ebebeb"></rect><rect x="234.04" y="237.41" width="50.72" height="3.47" style="fill:#a6a6a6"></rect><rect x="309.65" y="188.16" width="195.06" height="3.47" style="fill:#ebebeb"></rect><rect x="297.25" y="171.75" width="194.98" height="3.47" style="fill:#FFFFFF"></rect><rect x="198.02" y="188.16" width="11.42" height="3.47" style="fill:#ebebeb"></rect><rect x="198.02" y="204.58" width="11.42" height="3.47" style="fill:#ebebeb"></rect><rect x="198.02" y="220.99" width="11.42" height="3.47" style="fill:#a6a6a6"></rect><rect x="198.02" y="237.41" width="11.42" height="3.47" style="fill:#ebebeb"></rect><rect x="198.02" y="252.31" width="11.42" height="3.47" style="fill:#ebebeb"></rect><rect x="222.91" y="252.31" width="133.88" height="3.47" style="fill:#ebebeb"></rect><path d="M202.54,106.11a.63.63,0,0,1-.44,1.08.67.67,0,0,1-.46-.18l-2.83-2.86s0,0-.05-.06a.07.07,0,0,0,0,0,.26.26,0,0,1,0-.08.05.05,0,0,1,0,0s0,0,0-.06,0,0,0,0v-.07s0,0,0-.06,0,0,0,0v-.07s0,0,0,0,0-.05,0-.08,0,0,0,0a.73.73,0,0,1,0-.09,0,0,0,0,1,0,0,.19.19,0,0,1,.06-.07l2.83-2.86a.65.65,0,0,1,.9,0,.63.63,0,0,1,0,.9l-2.38,2.4Z" style="fill:#FFFFFF"></path><path d="M205.1,106.43l2.46-5.86a.55.55,0,0,1,.73-.29.54.54,0,0,1,.29.71l-2.47,5.87a.55.55,0,0,1-.51.33.48.48,0,0,1-.2,0A.54.54,0,0,1,205.1,106.43Z" style="fill:#FFFFFF"></path><path d="M213.44,104.06h0l-.07.08L210.53,107a.65.65,0,0,1-.9,0,.63.63,0,0,1,0-.9L212,103.7l-2.38-2.4a.63.63,0,0,1,0-.9.65.65,0,0,1,.9,0l2.83,2.86.07.07s0,0,0,0a.9.9,0,0,1,.05.09s0,0,0,0a.47.47,0,0,0,0,.09s0,0,0,0v.07s0,0,0,0,0,0,0,0v.08s0,0,0,0a.92.92,0,0,0,0,.09s0,0,0,0Z" style="fill:#FFFFFF"></path><rect x="364.23" y="244.68" width="1.56" height="18.73" style="fill:#ebebeb"></rect></g></svg>