<svg xmlns="http://www.w3.org/2000/svg" viewBox="0 0 750 500"><g id="freepik--Floor--inject-20"><path d="M59.52,348.2c202.12-.62,428.84-.62,631,0-202.12.61-428.84.61-631,0Z" style="fill:#263238"></path></g><g id="freepik--Device--inject-20"><rect x="143.25" y="41.93" width="463.51" height="310.05" style="fill:#dbdbdb"></rect><rect x="146.62" y="45.71" width="456.77" height="302.49" style="fill:#263238"></rect><rect x="82.88" y="424" width="584.24" height="21.48" style="fill:#c7c7c7"></rect><polygon points="82.88 424 143.25 351.98 606.75 351.98 667.12 424 82.88 424" style="fill:#dbdbdb"></polygon><polygon points="606.73 384.63 145.02 384.63 168.69 351.98 583.06 351.98 606.73 384.63" style="fill:#263238"></polygon><polygon points="598.46 373.22 153.29 373.22 154.25 371.89 597.5 371.89 598.46 373.22" style="fill:#37474f"></polygon><polygon points="589.81 361.3 161.94 361.3 162.9 359.96 588.85 359.96 589.81 361.3" style="fill:#37474f"></polygon><polygon points="303.53 415.9 318.49 392.92 432.22 392.92 448.23 415.9 303.53 415.9" style="fill:#263238"></polygon><polygon points="417.85 432.63 333.9 432.63 331.82 424 419.94 424 417.85 432.63" style="fill:#dbdbdb"></polygon><rect x="172.09" y="68.69" width="405.83" height="256.96" style="fill:#37474f"></rect><rect x="172.09" y="68.69" width="405.83" height="9.89" style="fill:#FFFFFF"></rect><path d="M181.39,73.63a1.87,1.87,0,1,1-1.87-1.87A1.86,1.86,0,0,1,181.39,73.63Z" style="fill:#c7c7c7"></path><path d="M189,73.63a1.87,1.87,0,1,1-1.87-1.87A1.86,1.86,0,0,1,189,73.63Z" style="fill:#fff"></path><path d="M196.67,73.63a1.87,1.87,0,1,1-1.87-1.87A1.86,1.86,0,0,1,196.67,73.63Z" style="fill:#455a64"></path><rect x="198.02" y="122.51" width="11.42" height="3.47" style="fill:#ebebeb"></rect><rect x="222.91" y="122.51" width="253.1" height="3.47" style="fill:#ebebeb"></rect><rect x="483.03" y="122.51" width="21.69" height="3.47" style="fill:#FFFFFF"></rect><rect x="198.02" y="138.92" width="11.42" height="3.47" style="fill:#ebebeb"></rect><rect x="234.04" y="138.92" width="85.95" height="3.47" style="fill:#a6a6a6"></rect><rect x="480.07" y="204.58" width="32.51" height="3.47" style="fill:#a6a6a6"></rect><rect x="222.91" y="188.16" width="82.1" height="3.47" style="fill:#a6a6a6"></rect><rect x="234.04" y="155.34" width="57.6" height="3.47" style="fill:#FFFFFF"></rect><rect x="298.03" y="155.34" width="214.1" height="3.47" style="fill:#a6a6a6"></rect><rect x="222.91" y="204.58" width="249.73" height="3.47" style="fill:#FFFFFF"></rect><rect x="325.39" y="138.92" width="176.91" height="3.47" style="fill:#ebebeb"></rect><rect x="198.02" y="155.34" width="11.42" height="3.47" style="fill:#ebebeb"></rect><rect x="198.02" y="171.75" width="11.42" height="3.47" style="fill:#a6a6a6"></rect><rect x="222.91" y="171.75" width="67.48" height="3.47" style="fill:#ebebeb"></rect><rect x="234.04" y="220.99" width="67.48" height="3.47" style="fill:#ebebeb"></rect><rect x="295.06" y="237.41" width="181.03" height="3.47" style="fill:#ebebeb"></rect><rect x="234.04" y="237.41" width="50.72" height="3.47" style="fill:#a6a6a6"></rect><rect x="309.65" y="188.16" width="195.06" height="3.47" style="fill:#ebebeb"></rect><rect x="297.25" y="171.75" width="194.98" height="3.47" style="fill:#FFFFFF"></rect><rect x="198.02" y="188.16" width="11.42" height="3.47" style="fill:#ebebeb"></rect><rect x="198.02" y="204.58" width="11.42" height="3.47" style="fill:#ebebeb"></rect><rect x="198.02" y="220.99" width="11.42" height="3.47" style="fill:#a6a6a6"></rect><rect x="198.02" y="237.41" width="11.42" height="3.47" style="fill:#ebebeb"></rect><rect x="198.02" y="252.31" width="11.42" height="3.47" style="fill:#ebebeb"></rect><rect x="222.91" y="252.31" width="133.88" height="3.47" style="fill:#ebebeb"></rect><path d="M202.54,106.11a.63.63,0,0,1-.44,1.08.67.67,0,0,1-.46-.18l-2.83-2.86s0,0-.05-.06a.07.07,0,0,0,0,0,.26.26,0,0,1,0-.08.05.05,0,0,1,0,0s0,0,0-.06,0,0,0,0v-.07s0,0,0-.06,0,0,0,0v-.07s0,0,0,0,0-.05,0-.08,0,0,0,0a.73.73,0,0,1,0-.09,0,0,0,0,1,0,0,.19.19,0,0,1,.06-.07l2.83-2.86a.65.65,0,0,1,.9,0,.63.63,0,0,1,0,.9l-2.38,2.4Z" style="fill:#FFFFFF"></path><path d="M205.1,106.43l2.46-5.86a.55.55,0,0,1,.73-.29.54.54,0,0,1,.29.71l-2.47,5.87a.55.55,0,0,1-.51.33.48.48,0,0,1-.2,0A.54.54,0,0,1,205.1,106.43Z" style="fill:#FFFFFF"></path><path d="M213.44,104.06h0l-.07.08L210.53,107a.65.65,0,0,1-.9,0,.63.63,0,0,1,0-.9L212,103.7l-2.38-2.4a.63.63,0,0,1,0-.9.65.65,0,0,1,.9,0l2.83,2.86.07.07s0,0,0,0a.9.9,0,0,1,.05.09s0,0,0,0a.47.47,0,0,0,0,.09s0,0,0,0v.07s0,0,0,0,0,0,0,0v.08s0,0,0,0a.92.92,0,0,0,0,.09s0,0,0,0Z" style="fill:#FFFFFF"></path><rect x="364.23" y="244.68" width="1.56" height="18.73" style="fill:#ebebeb"></rect></g></svg>