<svg xmlns="http://www.w3.org/2000/svg" viewBox="0 0 750 500"><g id="freepik--Floor--inject-80"><path d="M59.52,348.2c202.12-.62,428.84-.62,631,0-202.12.61-428.84.61-631,0Z" style="fill:#263238"></path></g><g id="freepik--Device--inject-80"><rect x="143.25" y="41.93" width="463.51" height="310.05" style="fill:#dbdbdb"></rect><rect x="146.62" y="45.71" width="456.77" height="302.49" style="fill:#263238"></rect><rect x="82.88" y="424" width="584.24" height="21.48" style="fill:#c7c7c7"></rect><polygon points="82.88 424 143.25 351.98 606.75 351.98 667.12 424 82.88 424" style="fill:#dbdbdb"></polygon><polygon points="606.73 384.63 145.02 384.63 168.69 351.98 583.06 351.98 606.73 384.63" style="fill:#263238"></polygon><polygon points="598.46 373.22 153.29 373.22 154.25 371.89 597.5 371.89 598.46 373.22" style="fill:#37474f"></polygon><polygon points="589.81 361.3 161.94 361.3 162.9 359.96 588.85 359.96 589.81 361.3" style="fill:#37474f"></polygon><polygon points="303.53 415.9 318.49 392.92 432.22 392.92 448.23 415.9 303.53 415.9" style="fill:#263238"></polygon><polygon points="417.85 432.63 333.9 432.63 331.82 424 419.94 424 417.85 432.63" style="fill:#dbdbdb"></polygon><rect x="172.09" y="68.69" width="405.83" height="256.96" style="fill:#37474f"></rect><rect x="172.09" y="68.69" width="405.83" height="9.89" style="fill:#9900FF"></rect><path d="M181.39,73.63a1.87,1.87,0,1,1-1.87-1.87A1.86,1.86,0,0,1,181.39,73.63Z" style="fill:#c7c7c7"></path><path d="M189,73.63a1.87,1.87,0,1,1-1.87-1.87A1.86,1.86,0,0,1,189,73.63Z" style="fill:#fff"></path><path d="M196.67,73.63a1.87,1.87,0,1,1-1.87-1.87A1.86,1.86,0,0,1,196.67,73.63Z" style="fill:#455a64"></path><rect x="198.02" y="122.51" width="11.42" height="3.47" style="fill:#ebebeb"></rect><rect x="222.91" y="122.51" width="253.1" height="3.47" style="fill:#ebebeb"></rect><rect x="483.03" y="122.51" width="21.69" height="3.47" style="fill:#9900FF"></rect><rect x="198.02" y="138.92" width="11.42" height="3.47" style="fill:#ebebeb"></rect><rect x="234.04" y="138.92" width="85.95" height="3.47" style="fill:#a6a6a6"></rect><rect x="480.07" y="204.58" width="32.51" height="3.47" style="fill:#a6a6a6"></rect><rect x="222.91" y="188.16" width="82.1" height="3.47" style="fill:#a6a6a6"></rect><rect x="234.04" y="155.34" width="57.6" height="3.47" style="fill:#9900FF"></rect><rect x="298.03" y="155.34" width="214.1" height="3.47" style="fill:#a6a6a6"></rect><rect x="222.91" y="204.58" width="249.73" height="3.47" style="fill:#9900FF"></rect><rect x="325.39" y="138.92" width="176.91" height="3.47" style="fill:#ebebeb"></rect><rect x="198.02" y="155.34" width="11.42" height="3.47" style="fill:#ebebeb"></rect><rect x="198.02" y="171.75" width="11.42" height="3.47" style="fill:#a6a6a6"></rect><rect x="222.91" y="171.75" width="67.48" height="3.47" style="fill:#ebebeb"></rect><rect x="234.04" y="220.99" width="67.48" height="3.47" style="fill:#ebebeb"></rect><rect x="295.06" y="237.41" width="181.03" height="3.47" style="fill:#ebebeb"></rect><rect x="234.04" y="237.41" width="50.72" height="3.47" style="fill:#a6a6a6"></rect><rect x="309.65" y="188.16" width="195.06" height="3.47" style="fill:#ebebeb"></rect><rect x="297.25" y="171.75" width="194.98" height="3.47" style="fill:#9900FF"></rect><rect x="198.02" y="188.16" width="11.42" height="3.47" style="fill:#ebebeb"></rect><rect x="198.02" y="204.58" width="11.42" height="3.47" style="fill:#ebebeb"></rect><rect x="198.02" y="220.99" width="11.42" height="3.47" style="fill:#a6a6a6"></rect><rect x="198.02" y="237.41" width="11.42" height="3.47" style="fill:#ebebeb"></rect><rect x="198.02" y="252.31" width="11.42" height="3.47" style="fill:#ebebeb"></rect><rect x="222.91" y="252.31" width="133.88" height="3.47" style="fill:#ebebeb"></rect><path d="M202.54,106.11a.63.63,0,0,1-.44,1.08.67.67,0,0,1-.46-.18l-2.83-2.86s0,0-.05-.06a.07.07,0,0,0,0,0,.26.26,0,0,1,0-.08.05.05,0,0,1,0,0s0,0,0-.06,0,0,0,0v-.07s0,0,0-.06,0,0,0,0v-.07s0,0,0,0,0-.05,0-.08,0,0,0,0a.73.73,0,0,1,0-.09,0,0,0,0,1,0,0,.19.19,0,0,1,.06-.07l2.83-2.86a.65.65,0,0,1,.9,0,.63.63,0,0,1,0,.9l-2.38,2.4Z" style="fill:#9900FF"></path><path d="M205.1,106.43l2.46-5.86a.55.55,0,0,1,.73-.29.54.54,0,0,1,.29.71l-2.47,5.87a.55.55,0,0,1-.51.33.48.48,0,0,1-.2,0A.54.54,0,0,1,205.1,106.43Z" style="fill:#9900FF"></path><path d="M213.44,104.06h0l-.07.08L210.53,107a.65.65,0,0,1-.9,0,.63.63,0,0,1,0-.9L212,103.7l-2.38-2.4a.63.63,0,0,1,0-.9.65.65,0,0,1,.9,0l2.83,2.86.07.07s0,0,0,0a.9.9,0,0,1,.05.09s0,0,0,0a.47.47,0,0,0,0,.09s0,0,0,0v.07s0,0,0,0,0,0,0,0v.08s0,0,0,0a.92.92,0,0,0,0,.09s0,0,0,0Z" style="fill:#9900FF"></path><rect x="364.23" y="244.68" width="1.56" height="18.73" style="fill:#ebebeb"></rect></g><g id="freepik--Character--inject-80"><path d="M232.79,460.85s39.37-17.5,45.85-20.46c13-5.93,36.28-24.2,46.24-30.63,5.82-3.76,1.17-16.47-16.53-14.31s-50.7,19.4-53.54,15.69,43-31.25,49.43-33.47,27.66,6.42,40.49,2,6.14-15.82-4.08-20.11c-13.54-5.69-39.33-9.32-48.82-9.32s-38.69,21.24-38.69,21.24,39.38-15.49,44.25-18.36,28.31-3.32,43.13-8.63,5.14-20.49-19.64-20.27A249.09,249.09,0,0,0,277.42,328c-7,1.06-49.28,29.06-49.28,29.06s8.19-1.77,11.51-2.88,36.3-21.89,40.88-24.31c17.29-9.15,29.52-21.39,24-29.11-4-5.61-27.08,1.56-38.32,8-14.94,8.55-57.29,39.9-57.29,39.9L262,312.83s-4.29-3.56-18.55-.42c-8.43,1.86-43,22.52-48.49,26.71-16.6,12.65-61.24,67.09-61.24,67.09l36.51,46.85Z" style="fill: rgb(255, 196, 192);"></path><path d="M211.4,347.41c12.52-10.46,22.73-22.25,49.38-35,.09,0,0-.27-.1-.25-19,4.86-36.93,20.31-49.69,34.69C210.57,347.38,210.9,347.82,211.4,347.41Z" style="fill:#263238"></path><path d="M230.07,356.81c11.09-6.62,23.92-15.51,37.17-22,6.5-3.19,9.3-3.84,18.61-7.91.09,0,0-.24-.08-.22-8.43,2.14-9.82,1.89-18.87,5.31-11.78,4.45-31.11,18.77-37.21,24.39C229.21,356.82,229.48,357.15,230.07,356.81Z" style="fill:#263238"></path><path d="M250.56,370.55c12-4.84,26.57-13.53,38.95-17.53,3.1-1,7.84-1.64,14.93-1.64.38,0,.85-.42-.05-.58-6-1.1-11.95-1-15.65,0-12.14,3.39-31.6,14.64-38.48,19.26C249.72,370.44,249.93,370.81,250.56,370.55Z" style="fill:#263238"></path><polygon points="232.79 460.86 208.32 499.92 27.72 499.92 133.68 406.21 224.18 396.22 232.79 460.86" style="fill: rgb(255, 196, 192);"></polygon><polygon points="208.32 499.92 214.79 489.58 79.66 453.98 27.72 499.92 208.32 499.92" style="fill:#9900FF"></polygon><polygon points="208.32 499.92 214.79 489.58 79.66 453.98 27.72 499.92 208.32 499.92" style="opacity:0.1"></polygon><polygon points="28.89 498.88 33.97 494.38 33.97 499.91 28.89 499.91 28.89 498.88" style="opacity:0.1"></polygon><polygon points="207.01 487.53 207.01 499.91 201.93 499.91 201.93 486.19 207.01 487.53" style="opacity:0.1"></polygon><polygon points="172.4 478.41 188.94 482.77 172.4 482.77 172.4 499.91 167.32 499.91 167.32 482.77 137.79 482.77 137.79 499.91 132.71 499.91 132.71 482.77 103.18 482.77 103.18 499.91 98.1 499.91 98.1 482.77 68.58 482.77 68.58 499.91 63.5 499.91 63.5 482.77 47.1 482.77 52.85 477.69 63.5 477.69 63.5 468.27 68.58 463.78 68.58 477.69 98.1 477.69 98.1 458.84 103.18 460.18 103.18 477.69 132.71 477.69 132.71 467.96 137.79 469.29 137.79 477.69 167.32 477.69 167.32 477.07 169.66 477.69 172.4 477.69 172.4 478.41" style="opacity:0.1"></polygon><polygon points="55.91 470.07 214.79 495.34 229.45 472.73 87.81 441.33 55.91 470.07" style="fill:#9900FF"></polygon><path d="M501.44,440.23s-35.88-17.8-42.61-20.12c-13.48-4.66-34.16-24.14-44.7-29.58-6.15-3.18-2.74-16.28,15.09-15.83s37.61,15.2,38.49,13.72c2.41-4-38.79-22.53-45.39-24.12s-27.22,3.82-40.42.65-7.63-15.15,2.13-20.41c12.93-7,38.56-7.82,48-8.74s40.55,17.43,40.55,17.43-40.68-11.63-45.81-14-28.5-.58-43.76-4.44-7.08-19.9,17.6-22.06a249.35,249.35,0,0,1,43.63-.38c7.11.38,51.84,24.19,51.84,24.19s-8.32-1-11.73-1.76-38.24-18.3-43-20.27C423.24,307,409.9,296,414.68,287.81c3.48-6,27.1-1.05,38.9,4.27,15.7,7.08,60.86,34.21,60.86,34.21l-60.15-31.9s2.77-5.71,11.36-4.88c30.69,3,55.91,22.26,61.78,25.91,17.74,11,67.41,60.9,67.41,60.9L563.78,424Z" style="fill: rgb(255, 196, 192);"></path><path d="M515,322.39c-13.89-8.24-31.7-19.19-59.42-29.52-.09,0-.06-.2,0-.18,18.93,4.21,44.78,16.38,59.66,29.33C515.77,322.41,515.57,322.71,515,322.39Z" style="fill:#263238"></path><path d="M494.14,336.4c-11.67-5.51-25.3-13.13-39.11-18.32-6.78-2.55-9.62-2.93-19.28-6.09-.1,0-.05-.24.06-.22,8.6,1.32,9.95.93,19.29,3.47,12.15,3.3,32.77,15.69,39.38,20.7C495,336.33,494.76,336.69,494.14,336.4Z" style="fill:#263238"></path><path d="M475.06,352.06c-12.38-3.68-27.74-10.93-40.45-13.71-3.18-.7-15.75-1.19-22.81-.51-.38,0-.88-.33,0-.58,5.9-1.68,19.6-1.86,23.38-1.19,12.4,2.21,32.86,11.54,40.15,15.48C475.9,351.86,475.72,352.25,475.06,352.06Z" style="fill:#263238"></path><polygon points="722.28 500.08 594.84 376.32 514.69 379.82 501.44 440.23 537.67 500.08 722.28 500.08" style="fill: rgb(255, 196, 192);"></polygon><polygon points="537.67 500.08 516.05 464.37 627.33 407.87 722.28 500.08 537.67 500.08" style="fill:#9900FF"></polygon><polygon points="537.67 500.08 516.05 464.37 627.33 407.87 722.28 500.08 537.67 500.08" style="opacity:0.1"></polygon><path d="M633.18,413.55h-17l10-5.08H628l4.16,4Zm30.4,29.53H557.81v.09l-9.83,5H668.81l-2.1-2Zm35.64,34.61H524.11l3.08,5.08H704.45l-3.13-3Zm0,0-3-2.89v25.29h5.08V479.73Zm-35.64-34.61-2-1.9v58.91h5.08v-54ZM628,408.47l-.62-.6L627,408v92.06h5.09V412.51Zm-35.53,17.12v74.5h5.08V423ZM558,443.08h-.17v57h5.08v-59.5ZM523.2,460.74v15.44l.91,1.51,3.08,5.08,1.09,1.81V458.16Z" style="opacity:0.1"></path><polygon points="507.5 461.2 526.79 489.58 661.8 434.74 625.22 402.01 507.5 461.2" style="fill:#9900FF"></polygon></g></svg>